<svg xmlns="http://www.w3.org/2000/svg" viewBox="0 0 220 280" role="img" aria-labelledby="yadraSymbolTitle">
<title id="yadraSymbolTitle">Symbole YADRA!</title>
<defs>
<linearGradient id="symSilverTail" x1="0" y1="0" x2="1" y2="1">
  <stop offset="0" stop-color="#FFFFFF"/>
  <stop offset=".4" stop-color="#D3D4D5"/>
  <stop offset=".55" stop-color="#6E7173"/>
  <stop offset=".72" stop-color="#EDEDED"/>
  <stop offset="1" stop-color="#B9BABB"/>
</linearGradient>
<linearGradient id="symSilverArm" x1="1" y1="0" x2="0" y2="1">
  <stop offset="0" stop-color="#FFFFFF"/>
  <stop offset=".28" stop-color="#F4F4F4"/>
  <stop offset=".47" stop-color="#75787A"/>
  <stop offset=".64" stop-color="#F7F7F7"/>
  <stop offset="1" stop-color="#C3C4C5"/>
</linearGradient>
<linearGradient id="symCopper" x1="0" y1="0" x2="1" y2="1">
  <stop offset="0" stop-color="#FBE3C8"/>
  <stop offset=".3" stop-color="#E2A06C"/>
  <stop offset=".5" stop-color="#6E3A22"/>
  <stop offset=".68" stop-color="#F0C9A6"/>
  <stop offset="1" stop-color="#C08454"/>
</linearGradient>
</defs>
<path id="symTail" d="M3,118
  C 3,106 12,98 26,96
  C 52,92 82,96 104,113
  C 122,127 130,148 128,175
  C 124,220 96,258 60,281
  C 46,289 28,293 12,289
  C 28,278 42,262 52,244
  C 64,222 68,196 58,176
  C 48,158 26,146 3,142
  Z" fill="url(#symSilverTail)" stroke="rgba(0,0,0,.3)" stroke-width="0.6"/>
<path id="symArmCopper" d="M91,167
  L103,7 L108,6
  L147,139
  C 149,146 146,153 139,158
  L 112,191
  C 100,198 91,190 91,177
  Z" fill="url(#symCopper)" stroke="rgba(0,0,0,.3)" stroke-width="0.6"/>
<path id="symArmCopperFold" d="M103,7 L118,10 L138,120 L117,58 Z" fill="#6E3A22" opacity="0.6"/>
<path id="symArmSilver" d="M130,183
  L166,40 L171,39
  L192,149
  C 194,156 191,163 184,168
  L 152,204
  C 140,210 130,202 130,190
  Z" fill="url(#symSilverArm)" stroke="rgba(0,0,0,.3)" stroke-width="0.6"/>
<path id="symArmSilverFold" d="M166,40 L180,44 L186,130 L167,73 Z" fill="#75787A" opacity="0.55"/>
</svg>
